<svg width="162" height="40" viewBox="0 0 162 40" fill="none" xmlns="http://www.w3.org/2000/svg">
<path d="M50 8.38818H57.0234L62.9812 22.8909H63.2562L69.2141 8.38818H76.2375V31.8121H70.715V17.4238H70.5202L64.8832 31.6634H61.3543L55.7172 17.3437H55.5225V31.8121H50V8.38818Z" fill="#0094FF"/>
<path d="M83.2007 38.4001C82.5285 38.4001 81.8945 38.3467 81.2988 38.24C80.703 38.1408 80.1912 38.0074 79.7635 37.8397L81.0009 33.7794C81.5508 33.9623 82.0473 34.0691 82.4903 34.0996C82.941 34.1301 83.3267 34.0577 83.6475 33.8823C83.976 33.7145 84.228 33.4134 84.4037 32.9787L84.6214 32.4526L78.3657 14.2442H84.2319L87.4743 26.7796H87.6576L90.9459 14.2442H96.8465L90.2126 33.4934C89.8918 34.4542 89.4373 35.3005 88.8492 36.0325C88.2687 36.7721 87.5163 37.3517 86.5921 37.771C85.6755 38.1904 84.545 38.4001 83.2007 38.4001Z" fill="#0094FF"/>
<path d="M98.9947 31.8121V8.38818H115.356V12.986H104.666V17.7898H114.52V22.3991H104.666V27.2142H115.356V31.8121H98.9947Z" fill="#0094FF"/>
<path d="M124.648 8.38818L128.933 15.7882H129.116L133.447 8.38818H139.795L132.714 20.1001L140.024 31.8121H133.516L129.116 24.332H128.933L124.533 31.8121H118.071L125.347 20.1001L118.255 8.38818H124.648Z" fill="#0094FF"/>
<path d="M142.728 31.8121V8.38818H152.421C154.177 8.38818 155.694 8.73131 156.969 9.41756C158.252 10.0962 159.242 11.0455 159.937 12.2655C160.632 13.4779 160.979 14.8885 160.979 16.4973C160.979 18.1138 160.624 19.5283 159.914 20.7406C159.211 21.9454 158.207 22.8794 156.9 23.5428C155.594 24.2062 154.044 24.5379 152.249 24.5379H146.268V20.0773H151.195C152.05 20.0773 152.764 19.9286 153.337 19.6312C153.918 19.3338 154.357 18.9183 154.655 18.3845C154.953 17.8432 155.102 17.2141 155.102 16.4973C155.102 15.773 154.953 15.1477 154.655 14.6216C154.357 14.0879 153.918 13.6761 153.337 13.3864C152.757 13.0966 152.042 12.9517 151.195 12.9517H148.399V31.8121H142.728Z" fill="#0094FF"/>
<circle cx="20" cy="20" r="20" fill="#0094FF"/>
<circle cx="20" cy="20" r="17.5" fill="white"/>
<circle cx="20" cy="20" r="15" fill="#0094FF"/>
<path d="M10.3547 25.4574V14.5427H17.9784V16.6852H12.9973V18.9235H17.5886V21.0713H12.9973V23.315H17.9784V25.4574H10.3547Z" fill="white"/>
<path d="M22.3081 14.5427L24.3047 17.9909H24.3902L26.4082 14.5427H29.3659L26.0665 20.0001L29.4726 25.4574H26.4402L24.3902 21.9719H24.3047L22.2547 25.4574H19.2436L22.6337 20.0001L19.3291 14.5427H22.3081Z" fill="white"/>
</svg>
